<svg id="Layer_1" data-name="Layer 1" xmlns="http://www.w3.org/2000/svg" viewBox="0 0 1920 284.49"><defs><style>.cls-1{fill:#020202;}</style></defs><title>Wordmark Black</title><path class="cls-1" d="M195.93,88.51V38.44L161.52,4H0V284.49H161.52l34.41-34.41V198.39H161.25v25.1a25.91,25.91,0,0,1-25.91,25.91H41.49V196a38.35,38.35,0,0,1,38.35-38.35h48.34l17.54-17.54h0l-17.54-17.54H72a30.5,30.5,0,0,1-30.49-30.5v-53h97a22.8,22.8,0,0,1,22.8,22.8v26.6Z"/><polygon class="cls-1" points="290.89 250.41 290.89 4.03 252.34 4.03 252.34 38.11 252.58 38.11 252.58 250.41 252.57 250.43 252.57 284.49 320.73 284.49 320.73 250.41 290.89 250.41"/><path class="cls-1" d="M385.43,250.41v-127H355.19V89.32h68.55V250.41H454v34.08H355.19V250.41ZM380,23a22.55,22.55,0,0,1,6.55-16.12A22,22,0,0,1,403.17,0,22.65,22.65,0,0,1,419.5,6.65,21.89,21.89,0,0,1,426.36,23a22.22,22.22,0,0,1-6.86,16.44,22.47,22.47,0,0,1-16.33,6.75,22.19,22.19,0,0,1-16.43-6.85A22.45,22.45,0,0,1,380,23Z"/><path class="cls-1" d="M474.75,120.17V86.09h25.4v-30L538.46,21V86.09h36.09v34.08H538.46v94.76q0,22.78,2.52,28.12t12.6,5.35a57,57,0,0,0,21-4v34.88a87.18,87.18,0,0,1-29.44,5.25q-17.54,0-28.43-7.77T503,257.27q-2.82-11.7-2.82-40.33V120.17Z"/><path class="cls-1" d="M814,190.93H649.84q3.63,27,21.37,43.76t45.37,16.73q40.11,0,63.51-32.26L814,234.08q-16.53,25.6-42.94,38a128.63,128.63,0,0,1-55.25,12.4q-44.76,0-76.51-27.93t-31.76-75.3q0-45,31-74t71.07-29q39.32,0,71.27,28.33T814,190.93Zm-39.52-27.82q-4-20.56-21.37-37.2t-42.54-16.63q-23,0-39.32,15t-20,38.81Z"/><path class="cls-1" d="M1178.33,196.47l-3.79-15H1044.6l-5.57,16h139.52Zm49.57,77.2L1120,8.21a7.56,7.56,0,0,0-2.78-3.84A9.06,9.06,0,0,0,1112,3a9.44,9.44,0,0,0-4.62,1c-1.17.67-2.18,2.06-3,4.23L996.47,273.67a7.52,7.52,0,0,0-.39,4,8.42,8.42,0,0,0,2.4,4.79c1.33,1.33,3.34,2,6,2a7.5,7.5,0,0,0,7.24-5.18l32.53-81.82,6.41-16L1110.88,30.1l61.32,151.33,6.13,15,33.53,82.82a6.91,6.91,0,0,0,3,3.79,8.92,8.92,0,0,0,5,1.39,9.14,9.14,0,0,0,6-2,6.83,6.83,0,0,0,2.4-5.63A12.08,12.08,0,0,0,1227.9,273.67Z"/><path class="cls-1" d="M1562.14,80.34A8.16,8.16,0,0,0,1548.27,86V276.45a8.17,8.17,0,0,0,2.23,5.63,7.42,7.42,0,0,0,5.79,2.39,8.16,8.16,0,0,0,8-8V86A8.18,8.18,0,0,0,1562.14,80.34Zm4-54.92a13.28,13.28,0,0,0-9.41-3.62,15.16,15.16,0,0,0-10.47,3.62,11.88,11.88,0,0,0-4,9.25v3.17a12.08,12.08,0,0,0,3.84,9.25c2.51,2.39,6,3.62,10.19,3.62a13.9,13.9,0,0,0,9.86-3.62,12.22,12.22,0,0,0,3.79-9.25V34.67A12.29,12.29,0,0,0,1566.15,25.42Z"/><path class="cls-1" d="M1726.39,205.88a46.71,46.71,0,0,0-13.59-16,81.34,81.34,0,0,0-20-10.64,228.34,228.34,0,0,0-24.67-7.41,254.08,254.08,0,0,1-29.47-9.63q-13-5.17-20.88-13.2c-5.18-5.35-8.08-12.2-8.64-20.5,0-8.8,2.45-16.09,7.24-21.83a44.83,44.83,0,0,1,18.66-13,67.49,67.49,0,0,1,24.68-4.4,76.79,76.79,0,0,1,29.46,5.62A65.4,65.4,0,0,1,1713.36,112a6.05,6.05,0,0,0,4.85,2.4,9.21,9.21,0,0,0,5.18-1.56,9.35,9.35,0,0,0,3-6.24,6.31,6.31,0,0,0-3-5.79,72.62,72.62,0,0,0-20.06-16.27,83.53,83.53,0,0,0-21.61-8.24,97.41,97.41,0,0,0-20.49-2.4q-20.06,0-35.26,7c-10.19,4.68-18,11.2-23.67,19.44a48.83,48.83,0,0,0-8.41,28.07c0,8.86,1.84,16.49,5.62,22.89A54.5,54.5,0,0,0,1614.72,168,89.25,89.25,0,0,0,1637,179.59a263.67,263.67,0,0,0,26.68,8.25,179.43,179.43,0,0,1,25.23,8,53.73,53.73,0,0,1,19.66,13c5.07,5.46,7.63,12.75,7.63,21.83,0,8.58-2.62,15.82-7.85,21.67a47.63,47.63,0,0,1-20,13.26,74,74,0,0,1-25.46,4.4q-22,0-38.26-9.25a80.41,80.41,0,0,1-26.68-24.06,8.41,8.41,0,0,0-5.85-3,6.82,6.82,0,0,0-5.4,1.84,6.75,6.75,0,0,0-3,5c-.11,2,.72,4.62,2.62,7.8,10.41,12.87,22,22.06,34.86,27.68a99,99,0,0,0,40.11,8.41c13.64,0,25.73-2.17,36.31-6.63s18.83-10.63,24.84-18.82,9-17.83,9-29.08Q1731.41,215.5,1726.39,205.88Z"/><path class="cls-1" d="M1337.33,267.4a74.81,74.81,0,0,1-19.81,2.64q-22.05,0-38.29-9.21a81.14,81.14,0,0,1-26.67-24.07,8.12,8.12,0,0,0-5.82-3,6.74,6.74,0,0,0-5.41,1.8,6.58,6.58,0,0,0-3,5q-.21,3,2.61,7.82,15.64,19.25,34.89,27.67a99.09,99.09,0,0,0,40.1,8.43c13.16,0,24.86-2.11,35.16-6.22C1346.42,274.73,1341.8,271.16,1337.33,267.4Z"/><path class="cls-1" d="M1458.15,268.93l14.59,11.59A102.13,102.13,0,0,1,1403.9,276c-6.74-3-12.92-8.47-18.82-12.81-11.59-8.58-22.95-17.38-34.31-26.29-19-14.93-38-30-56.65-45.51-21.22-17.6-45.56-31.8-45.56-62.94a48.91,48.91,0,0,1,8.41-28.07c5.63-8.3,13.48-14.76,23.67-19.44s21.89-7,35.26-7a93.11,93.11,0,0,1,20.44,2.4A85,85,0,0,1,1358,84.52c1.39.78,2.78,1.61,4.12,2.5a7.65,7.65,0,0,1,1.28,11.42,7.5,7.5,0,0,1-9.75,1.39,63.69,63.69,0,0,0-9.86-5.07,78,78,0,0,0-29.52-5.62,68.38,68.38,0,0,0-24.61,4.4,44.92,44.92,0,0,0-18.66,13c-12.48,14.93-7.3,36.76,6.24,49,4.12,3.73,8.41,7.41,12.64,11.08,11.81,10.14,23.78,20.06,35.81,29.91,23.4,19.22,47,38.38,71.07,56.7,3.4,2.57,6.8,5.46,10.53,7.58q16.29,9.19,38.32,9.19A71.69,71.69,0,0,0,1458.15,268.93Z"/><path class="cls-1" d="M1514.18,229.89a51.41,51.41,0,0,1-3.12,18.21l-12.86-9.86a32.91,32.91,0,0,0,.78-7.52c0-9.08-2.56-16.37-7.63-21.89a54.37,54.37,0,0,0-19.66-13,194.56,194.56,0,0,0-25.29-8c-9.36-2.4-18.21-5.12-26.62-8.19A88.33,88.33,0,0,1,1397.5,168a54.76,54.76,0,0,1-15.26-16.65c-3.74-6.41-5.57-14-5.57-22.84a48.83,48.83,0,0,1,8.41-28.07c5.62-8.3,13.48-14.76,23.67-19.44s21.89-7,35.25-7a93.26,93.26,0,0,1,20.45,2.4,84.8,84.8,0,0,1,21.66,8.19,72.58,72.58,0,0,1,20.05,16.26,6.69,6.69,0,0,1,3,5.79,7.78,7.78,0,0,1-8.19,7.86,6.21,6.21,0,0,1-4.84-2.4,65,65,0,0,0-24.23-17.27,78.05,78.05,0,0,0-29.52-5.62,68.48,68.48,0,0,0-24.62,4.4,44.92,44.92,0,0,0-18.66,13c-4.84,5.8-7.24,13-7.24,21.89.56,8.3,3.4,15.1,8.63,20.44s12.15,9.75,20.84,13.26a260,260,0,0,0,29.52,9.58,220.88,220.88,0,0,1,24.61,7.46,79.56,79.56,0,0,1,20.06,10.59,46.77,46.77,0,0,1,13.64,16Q1514.18,215.52,1514.18,229.89Z"/><path class="cls-1" d="M1830.55,85.13a7.07,7.07,0,0,0-5.4-2.4H1765V97.94h60.16a7.49,7.49,0,0,0,5.4-2.17,7.4,7.4,0,0,0,2.17-5.41A7.65,7.65,0,0,0,1830.55,85.13Zm-13,185.47a6.33,6.33,0,0,0-4.84-2.17,12.47,12.47,0,0,0-4.79.78,12.47,12.47,0,0,1-4.79.78,31.29,31.29,0,0,1-10-1.78c-3.51-1.23-6.35-3.9-8.63-8s-3.4-10.64-3.4-19.44V31.83a8.16,8.16,0,0,0-2.23-5.63,7.39,7.39,0,0,0-5.79-2.39,8.18,8.18,0,0,0-8,8v209.7c0,11.75,1.56,20.66,4.79,26.68s7.13,10.13,11.81,12.42a32.57,32.57,0,0,0,13.26,3.62c4.12.11,7,.22,8.63.22a23.07,23.07,0,0,0,11.42-2.62c3.06-1.72,4.62-3.84,4.62-6.23A7.38,7.38,0,0,0,1817.51,270.6Z"/><circle class="cls-1" cx="1895.26" cy="259.75" r="24.74"/></svg>